<svg
aria-hidden="true"
xmlns="http://www.w3.org/2000/svg"
overflow="hidden">
    <defs>
        <!--burguer nav-menu-->
        <symbol id="menu-burguer">
            <path fill="#000" fill-rule="evenodd" d="M0 2.667V0h24v2.667H0Zm0 6.666h24V6.667H0v2.666ZM0 16h24v-2.667H0V16Z" clip-rule="evenodd"/>
        </symbol>
        <!--Sobre-->
        <symbol id="envelope">
            <path d="M14.5 0h-13C.673 0 0 .673 0 1.5v9c0 .827.673 1.5 1.5 1.5h13c.827 0 1.5-.673 1.5-1.5v-9c0-.827-.673-1.5-1.5-1.5Zm0 1c.068 0 .133.014.192.039L8 6.839l-6.692-5.8A.498.498 0 0 1 1.5 1h13Zm0 10h-13a.5.5 0 0 1-.5-.5V2.095l6.672 5.783a.5.5 0 0 0 .656 0L15 2.095V10.5a.5.5 0 0 1-.5.5Z"/>
        </symbol>
        <!--Smartphone-->
        <symbol id="smartphone">
            <path d="M8.5 0h-7C.673 0 0 .673 0 1.5v13c0 .827.673 1.5 1.5 1.5h7c.827 0 1.5-.673 1.5-1.5v-13C10 .673 9.327 0 8.5 0Zm-7 1h7a.5.5 0 0 1 .5.5V12H1V1.5a.5.5 0 0 1 .5-.5Zm7 14h-7a.5.5 0 0 1-.5-.5V13h8v1.5a.5.5 0 0 1-.5.5Z"/>
            <path d="M2.354 13.739a.445.445 0 0 1 0 .66.525.525 0 0 1-.708 0 .445.445 0 0 1 0-.66.525.525 0 0 1 .708 0Z"/>
        </symbol>
        <!--Antenna-->
        <symbol id="antenna">
            <path fill="#212121" d="m67.316 48.339-18.47-18.605 2.05-10.097a4.655 4.655 0 0 0 1.66.319h.014a4.723 4.723 0 1 0-4.394-3.14l-10.85 1.325L19.628.35a1.166 1.166 0 0 0-.824-.35c-.306.002-.6.124-.817.34L14.68 3.63a1.167 1.167 0 0 0 0 1.65l1.78 1.805a32.686 32.686 0 0 0 5.511 38.638c.094.09.202.161.32.213a6.77 6.77 0 0 0-.114 1.197v13.534h-14A5.84 5.84 0 0 0 2.342 66.5v2.333c0 .645.523 1.167 1.167 1.167h53.667c.644 0 1.166-.522 1.166-1.167V66.5a5.84 5.84 0 0 0-5.833-5.833h-14v-5.998c2.193.46 4.428.694 6.669.7a32.483 32.483 0 0 0 15.4-3.901l1.79 1.8c.216.221.513.347.823.35.306-.002.6-.124.817-.34l3.308-3.29a1.167 1.167 0 0 0 0-1.65ZM50.925 13.635a2.333 2.333 0 1 1 1.645 3.987h-.008a2.333 2.333 0 0 1-1.633-3.987h-.004ZM48.178 21.3l-1.309 6.444-2.571-2.587 3.88-3.857Zm-1.325-1.973-4.2 4.176-3.25-3.267 7.45-.909ZM52.509 63a3.5 3.5 0 0 1 3.5 3.5v1.167H4.676V66.5a3.5 3.5 0 0 1 3.5-3.5h44.333Zm-16.333-4.667v2.334H24.509v-2.334h11.667ZM24.509 56v-8.867c0-2.83 2.617-5.133 5.833-5.133 3.217 0 5.834 2.303 5.834 5.133V56H24.509Zm14-3.71v-5.157c0-4.117-3.663-7.466-8.167-7.466a8.312 8.312 0 0 0-7.177 3.907A30.34 30.34 0 0 1 18.18 8.82l40.692 40.925a30.233 30.233 0 0 1-20.363 2.544Zm24.695-1.496-1.644-1.653L18.792 6.116l-1.65-1.655 1.65-1.645L36.15 20.272c.008 0 .013.015.021.021l28.688 28.856-1.655 1.645Z"/>
            <path fill="#2196F3" d="M30.353 44.333h-.01a3.5 3.5 0 1 0-.011 7h.01a3.5 3.5 0 0 0 .01-7Zm.816 4.327a1.167 1.167 0 1 1-.827-1.993 1.166 1.166 0 0 1 .817 1.993h.01Z"/>
        </symbol>
        <!--Clock-->
        <symbol id="clock">
            <g clip-path="url(#a)" filter="url(#b)">
                <path fill="#212121" d="M71.461 33.471C71.458 14.982 56.466-.004 37.975 0 19.485.004 4.5 14.996 4.504 33.486A33.479 33.479 0 0 0 27.799 65.37c.133.042.27.063.41.063.263 0 .521-.071.748-.205.296-.175.516-.453.62-.78l8.454-26.797a4.184 4.184 0 1 0-1.837-7.95L25.025 18.53a1.395 1.395 0 0 0-1.972 1.973l11.163 11.176a4.104 4.104 0 0 0 1.173 5.051l-8.055 25.535C11.414 56.4 3.262 38.74 9.126 22.82 14.991 6.9 32.65-1.252 48.571 4.613c15.92 5.864 24.072 23.524 18.207 39.444A30.72 30.72 0 0 1 50.455 61.5l-.87-4.1a1.394 1.394 0 0 0-2.294-.752l-8.393 7.494a1.394 1.394 0 0 0 .505 2.372l10.716 3.42a1.394 1.394 0 0 0 1.791-1.619l-.855-4.022a33.37 33.37 0 0 0 20.406-30.82Zm-33.478-1.394a1.395 1.395 0 1 1 0 2.79 1.395 1.395 0 0 1 0-2.79Zm4.594 32.515 4.778-4.262 1.319 6.213-6.097-1.951Z"/>
                <path fill="#2196F3" d="M36.588 6.967v2.79a1.395 1.395 0 1 0 2.79 0v-2.79a1.395 1.395 0 0 0-2.79 0ZM11.479 32.077a1.395 1.395 0 0 0 0 2.79h2.79a1.395 1.395 0 1 0 0-2.79h-2.79ZM64.487 34.867a1.395 1.395 0 1 0 0-2.79h-2.79a1.395 1.395 0 0 0 0 2.79h2.79Z"/>
            </g>
            <defs>
                <clipPath id="a">
                    <path fill="#fff" d="M3 0h70v70H3z"/>
                </clipPath>
                <filter id="b" width="78" height="78" x="-1" y="0" color-interpolation-filters="sRGB" filterUnits="userSpaceOnUse">
                    <feFlood flood-opacity="0" result="BackgroundImageFix"/>
                    <feColorMatrix in="SourceAlpha" result="hardAlpha" values="0 0 0 0 0 0 0 0 0 0 0 0 0 0 0 0 0 0 127 0"/>
                    <feOffset dy="4"/>
                    <feGaussianBlur stdDeviation="2"/>
                    <feComposite in2="hardAlpha" operator="out"/>
                    <feColorMatrix values="0 0 0 0 0 0 0 0 0 0 0 0 0 0 0 0 0 0 0.25 0"/>
                    <feBlend in2="BackgroundImageFix" result="effect1_dropShadow_75273_446"/>
                    <feBlend in="SourceGraphic" in2="effect1_dropShadow_75273_446" result="shape"/>
                </filter>
            </defs>
        </symbol>
        <!--Diagrama-->
        <symbol id="diagram">
            <g clip-path="url(#a)">
                <path fill="#2196F3" d="M32.65 32.735h2.332V43.23H32.65V32.735ZM41.978 37.4h2.332v5.83h-2.332V37.4ZM23.321 40.898h2.332v2.332h-2.332v-2.332ZM16.325 39.731h2.332v3.499h-2.332V39.73Z"/>
                <path fill="#212121" d="M3.498 61.886h55.97a3.498 3.498 0 0 0 3.499-3.498v-4.664a3.498 3.498 0 0 0-3.498-3.498h-1.166v-29.08l6.623-6.274a3.518 3.518 0 1 0-1.633-1.668l-4.99 4.73v-2.69a3.498 3.498 0 0 0-3.498-3.498H8.162a3.498 3.498 0 0 0-3.498 3.498v34.982H3.498A3.498 3.498 0 0 0 0 53.724v4.664a3.498 3.498 0 0 0 3.498 3.498ZM66.465 10.58a1.166 1.166 0 1 1 0 2.332 1.166 1.166 0 0 1 0-2.332ZM6.996 15.244c0-.644.522-1.166 1.166-1.166h46.643c.644 0 1.166.522 1.166 1.166v4.897l-2.332 2.216v-4.78c0-.645-.523-1.167-1.167-1.167H10.495c-.644 0-1.167.522-1.167 1.166v29.152c0 .644.523 1.166 1.167 1.166h41.977c.645 0 1.167-.522 1.167-1.166V25.565l2.332-2.21v26.87H6.996v-34.98Zm10.495 15.159a3.498 3.498 0 1 0 2.422 6.012l4.053 2.034c.471.235 1.042.125 1.392-.269l8.616-9.693 8.47 6.347c.455.34 1.089.304 1.501-.086l7.361-6.973v17.787H11.661v-26.82h39.645v5.82l-8.25 7.813-8.54-6.403a1.167 1.167 0 0 0-1.572.157l-8.734 9.828-3.265-1.633a3.3 3.3 0 0 0 .044-.423 3.498 3.498 0 0 0-3.498-3.498Zm1.166 3.498a1.166 1.166 0 1 1-2.332 0 1.166 1.166 0 0 1 2.332 0Zm6.996 18.657h11.66v1.166c0 .644-.521 1.166-1.165 1.166h-9.329a1.166 1.166 0 0 1-1.166-1.166v-1.166Zm-23.32 1.166c0-.644.521-1.166 1.165-1.166h19.823v1.166a3.498 3.498 0 0 0 3.498 3.498h9.329a3.498 3.498 0 0 0 3.498-3.498v-1.166h19.823c.644 0 1.166.522 1.166 1.166v4.664c0 .644-.522 1.166-1.166 1.166H3.499a1.166 1.166 0 0 1-1.167-1.166v-4.664Z"/>
            </g>
            <defs>
                <clipPath id="a">
                    <path fill="#fff" d="M0 0h70v70H0z"/>
                </clipPath>
            </defs>
        </symbol>
        <!--Astronauta-->
        <symbol id="astronaut">
            <path fill="#2196F3" d="M69.943 9.896a1.168 1.168 0 0 0-.941-.793l-4.18-.608-1.87-3.787c-.391-.798-1.7-.798-2.091 0l-1.87 3.787-4.18.608a1.167 1.167 0 0 0-.648 1.99l3.026 2.948-.714 4.162c-.075.438.105.88.463 1.142a1.16 1.16 0 0 0 1.23.088l3.738-1.966 3.738 1.966a1.168 1.168 0 0 0 1.693-1.23l-.714-4.162 3.025-2.949a1.17 1.17 0 0 0 .295-1.196ZM64.556 12.8c-.275.267-.4.655-.335 1.033l.417 2.437-2.188-1.15a1.165 1.165 0 0 0-1.088 0l-2.188 1.15.417-2.437a1.168 1.168 0 0 0-.334-1.033l-1.773-1.726 2.448-.356c.38-.055.708-.294.879-.639l1.094-2.216 1.094 2.216c.17.345.498.584.879.639l2.448.355-1.77 1.727ZM57.167 44.892h-2.333v2.334h2.333v-2.334ZM57.167 49.56h-2.333v2.332h2.333V49.56ZM59.5 47.226h-2.333v2.333H59.5v-2.333ZM54.834 47.226H52.5v2.333h2.334v-2.333ZM49 57.726h-2.333v2.333H49v-2.333ZM49 62.393h-2.333v2.333H49v-2.333ZM51.334 60.06H49v2.333h2.334v-2.334ZM46.667 60.06h-2.334v2.333h2.334v-2.334ZM35 53.06h-2.333v2.333H35v-2.334ZM35 57.726h-2.333v2.333H35v-2.333ZM37.333 55.392H35v2.334h2.333v-2.334ZM32.667 55.392h-2.334v2.334h2.334v-2.334ZM12.833 13.392H10.5v2.333h2.333v-2.333ZM12.833 18.059H10.5v2.333h2.333v-2.333ZM15.166 15.725h-2.333v2.334h2.333v-2.334ZM10.5 15.725H8.166v2.334H10.5v-2.334Z"/>
            <path fill="#212121" d="M54.063 30.974a3.88 3.88 0 0 0-2.599-1.541 3.886 3.886 0 0 0-2.93.77L45.794 32.3l-.001.002-4.151 3.1-2.97-1.184c5.296-2.376 8.998-7.674 8.998-13.825 0-8.362-6.83-15.167-15.227-15.167s-15.228 6.804-15.228 15.167c0 3.031.907 5.85 2.45 8.222l-6.046-.053h-.01c-.019 0-.034.01-.051.01a1.14 1.14 0 0 0-.34.069c-.028.01-.057.016-.084.029-.014.006-.028.007-.042.014l-7.072 3.491c-.001 0-.003 0-.003.002l-4.141 1.991a.898.898 0 0 0-.138.077A3.895 3.895 0 0 0 .43 39.268a3.884 3.884 0 0 0 2.31 1.944 3.891 3.891 0 0 0 3.016-.281l3.036-1.614 4.952-2.558 2.968-.017L4.808 48.588c0 .002-.002.002-.003.003l-2.929 2.916a3.607 3.607 0 0 0-1.072 2.577c0 .973.38 1.888 1.072 2.578a3.647 3.647 0 0 0 2.58 1.062c.936 0 1.869-.355 2.582-1.062l2.875-2.863 3.808-2.843 1.97 1.962-3.854 3.837-.003.002-2.928 2.917a3.607 3.607 0 0 0-1.073 2.576c0 .973.38 1.89 1.073 2.579a3.65 3.65 0 0 0 2.58 1.061c.935 0 1.87-.354 2.582-1.061l2.93-2.917 4.686-4.667.002-.003 2.21-2.188-.01-.008c.015-.014.035-.019.049-.034l11.3-12.377 7.593 1.08c.055.008.11.012.164.012.142 0 .278-.034.41-.084.039-.014.072-.033.109-.051.042-.021.086-.033.126-.06l7.029-4.666c.026-.018.04-.046.064-.065.028-.022.063-.031.089-.056l2.78-2.605a3.891 3.891 0 0 0 .465-5.166ZM4.66 38.872c-.379.203-.81.244-1.221.113a1.564 1.564 0 0 1-.465-2.755l2.874-1.383.692 2.022.29.85-2.17 1.153Zm7.65-3.998-3.387 1.75-.558-1.633-.402-1.174 4.434-2.189-.087 3.246Zm33.03-14.482c0 2.009-.48 3.904-1.31 5.599l-9.147-4.155a4.07 4.07 0 0 0-1.724-3.035L36.36 8.168c5.202 1.654 8.98 6.506 8.98 12.223Zm-25.788 0c0-7.076 5.784-12.834 12.894-12.834.553 0 1.094.047 1.63.115L30.943 18.07c-.042 0-.081-.013-.125-.013a4.094 4.094 0 0 0-4.096 4.084 4.094 4.094 0 0 0 4.096 4.083c1.52 0 2.832-.838 3.54-2.066l8.45 3.839c-2.352 3.164-6.114 5.227-10.362 5.227-7.11 0-12.894-5.757-12.894-12.833Zm13.03 1.75c0 .965-.792 1.75-1.764 1.75a1.759 1.759 0 0 1-1.762-1.75c0-.965.79-1.75 1.762-1.75s1.763.785 1.763 1.75ZM5.391 55.007a1.331 1.331 0 0 1-1.87.002 1.299 1.299 0 0 1 0-1.847l2.105-2.097L7.49 52.92l-2.097 2.089Zm7.03 8.167a1.33 1.33 0 0 1-1.87.002 1.3 1.3 0 0 1 0-1.847l2.106-2.098.88.876.983.978-2.099 2.09Zm7.616-7.588-.003.003-3.86 3.85-.882-.877-.982-.977 3.857-3.84v-.001l.004-.002c.087-.088.142-.193.196-.297.015-.03.044-.056.057-.087.036-.09.042-.187.056-.281.007-.054.03-.104.03-.159 0-.078-.028-.154-.044-.231-.014-.07-.014-.141-.041-.209a1.167 1.167 0 0 0-.2-.3c-.022-.027-.03-.06-.054-.084h-.002s0-.003-.002-.004l-3.515-3.5c-.037-.038-.085-.053-.127-.084a1.115 1.115 0 0 0-.19-.127 1.095 1.095 0 0 0-.205-.07 1.125 1.125 0 0 0-.225-.044 1.132 1.132 0 0 0-.209.01c-.078.01-.151.02-.227.045a1.08 1.08 0 0 0-.207.098c-.043.024-.092.033-.133.063l-3.879 2.896-1.97-1.963 5.247-5.22 9.54 9.382-2.03 2.01Zm14.916-15.349c-.033-.004-.065.008-.099.006a1.154 1.154 0 0 0-.252.015 1.075 1.075 0 0 0-.404.15 1.13 1.13 0 0 0-.181.134c-.028.024-.062.036-.088.064L23.653 51.862l-9.468-9.311 6.197-6.165a1.168 1.168 0 0 0-.83-1.993l-4.854.028.061-3.516 6.79.058a15.2 15.2 0 0 0 10.897 4.596c.957 0 1.89-.1 2.799-.268.087.07.174.14.283.185l5.272 2.1.333 1.66.39 1.936-6.569-.935Zm8.84.39-.684-3.408 3.164-2.363.828 1.1 1.242 1.65-4.55 3.02Zm8.212-6.193-1.833 1.718-2.037-2.705 1.818-1.394c.34-.261.768-.367 1.188-.313.422.06.796.28 1.05.622a1.562 1.562 0 0 1-.187 2.072Z"/>
            <path fill="#212121" d="m29.755 40.565-4.688-4.667a1.166 1.166 0 0 0-1.646 0l-4.687 4.667a1.172 1.172 0 0 0 0 1.654l4.686 4.667a1.166 1.166 0 0 0 1.647 0l4.688-4.667a1.167 1.167 0 0 0 0-1.654Zm-5.51 3.848-3.034-3.02 3.033-3.021 3.035 3.02-3.035 3.02ZM37.547 11.092l-.564 2.266c.156.039 3.801.988 3.801 4.7h2.334c0-4.412-3.644-6.486-5.571-6.966ZM43.118 20.392h-2.334v2.333h2.334v-2.333Z"/>
        </symbol>
        <!--Redes sociales-->
        <symbol id="instagram_1">
            <g clip-path="url(#a)">
                <path d="M19.98 5.88c-.046-1.063-.218-1.793-.464-2.426a4.88 4.88 0 0 0-1.157-1.774 4.922 4.922 0 0 0-1.77-1.153C15.952.281 15.226.11 14.163.063 13.093.012 12.753 0 10.037 0 7.322 0 6.982.012 5.915.059 4.853.105 4.122.277 3.49.523A4.88 4.88 0 0 0 1.715 1.68 4.924 4.924 0 0 0 .563 3.45C.316 4.087.145 4.813.098 5.876c-.051 1.07-.063 1.41-.063 4.126 0 2.715.012 3.055.059 4.122.047 1.063.219 1.793.465 2.426a4.932 4.932 0 0 0 1.156 1.774c.5.508 1.106.902 1.77 1.152.637.247 1.364.419 2.426.465 1.067.047 1.407.059 4.122.059 2.716 0 3.056-.012 4.122-.059 1.063-.046 1.793-.218 2.426-.464a5.116 5.116 0 0 0 2.927-2.927c.246-.637.418-1.364.465-2.426.047-1.067.058-1.407.058-4.122s-.004-3.055-.05-4.122Zm-1.8 8.166c-.044.977-.208 1.504-.344 1.856a3.318 3.318 0 0 1-1.9 1.898c-.35.137-.882.301-1.855.344-1.055.047-1.371.059-4.04.059-2.668 0-2.989-.012-4.04-.059-.977-.043-1.504-.207-1.856-.344a3.077 3.077 0 0 1-1.148-.746 3.11 3.11 0 0 1-.747-1.148c-.136-.352-.3-.883-.343-1.856-.047-1.055-.059-1.372-.059-4.04 0-2.669.012-2.99.059-4.04.043-.977.207-1.504.343-1.856A3.04 3.04 0 0 1 3 2.965a3.105 3.105 0 0 1 1.15-.746c.35-.137.882-.3 1.855-.344 1.055-.046 1.372-.058 4.04-.058 2.672 0 2.989.012 4.04.058.977.043 1.504.207 1.856.344.433.16.828.414 1.148.746.332.325.586.715.747 1.15.136.35.3.882.343 1.855.047 1.055.059 1.371.059 4.04 0 2.668-.012 2.98-.059 4.036Z"/>
                <path d="M10.037 4.864A5.139 5.139 0 0 0 4.9 10.002a5.139 5.139 0 1 0 5.138-5.138Zm0 8.47a3.333 3.333 0 1 1 .001-6.666 3.333 3.333 0 0 1 0 6.667ZM16.578 4.661a1.2 1.2 0 1 1-2.4 0 1.2 1.2 0 0 1 2.4 0Z"/>
            </g>
            <defs>
                <clipPath id="a">
                <path fill="#fff" d="M0 0h20v20H0z"/>
                </clipPath>
            </defs>
        </symbol>
        <symbol id="twitter_2">
            <g clip-path="url(#a)">
                <path d="M20 3.799a8.55 8.55 0 0 1-2.363.647 4.077 4.077 0 0 0 1.804-2.266 8.195 8.195 0 0 1-2.6.992A4.099 4.099 0 0 0 9.75 5.976c0 .325.027.638.095.935-3.409-.166-6.425-1.8-8.451-4.288A4.128 4.128 0 0 0 .83 4.694c0 1.42.732 2.679 1.821 3.407A4.05 4.05 0 0 1 .8 7.597v.045a4.119 4.119 0 0 0 3.285 4.03 4.09 4.09 0 0 1-1.075.134c-.262 0-.527-.015-.776-.07.531 1.624 2.038 2.818 3.831 2.856a8.239 8.239 0 0 1-5.084 1.75c-.336 0-.658-.016-.981-.057a11.544 11.544 0 0 0 6.29 1.84c7.545 0 11.67-6.25 11.67-11.668 0-.18-.006-.356-.015-.53A8.18 8.18 0 0 0 20 3.8Z"/>
            </g>
            <defs>
                <clipPath id="a">
                <path fill="#fff" d="M0 0h20v20H0z"/>
                </clipPath>
            </defs>
        </symbol>
        <symbol id="facebook_3">
            <g clip-path="url(#a)">
                <path d="M13.33 3.32h1.827V.14a23.576 23.576 0 0 0-2.66-.14C9.864 0 8.06 1.656 8.06 4.7v2.8H5.156v3.555H8.06V20h3.562v-8.944h2.787l.443-3.555h-3.231V5.05c0-1.027.277-1.73 1.709-1.73Z"/>
            </g>
            <defs>
                <clipPath id="a">
                    <path fill="#fff" d="M0 0h20v20H0z"/>
                </clipPath>
            </defs>        
        </symbol>
        <symbol id="linkedin_4">
            <g clip-path="url(#a)">
                <path d="M19.995 20H20v-7.336c0-3.588-.772-6.352-4.967-6.352-2.017 0-3.37 1.106-3.923 2.156h-.058V6.647H7.074v13.352h4.142v-6.611c0-1.741.33-3.425 2.486-3.425 2.124 0 2.156 1.987 2.156 3.536V20h4.137ZM.33 6.647h4.147V20H.33V6.647ZM2.402 0A2.402 2.402 0 0 0 0 2.402c0 1.325 1.076 2.424 2.402 2.424 1.325 0 2.401-1.098 2.401-2.424A2.403 2.403 0 0 0 2.402 0Z"/>
            </g>
            <defs>
                <clipPath id="a">
                    <path fill="#fff" d="M0 0h20v20H0z"/>
                </clipPath>
            </defs>        
        </symbol>
        <symbol id="customer_1">
            <g clip-path="url(#a)">
                <path fill-rule="evenodd" d="m38 7 7.008 6.634L32 13.626v32.188h34V33.507l7 6.627V7H38Zm27.692 25.728-19.87-18.81h19.87v18.81Zm-6.169 8.377H37.38V19.459h1.565V39.64h20.578v1.465ZM42.61 50.1l-.818 1.685-.818-1.685h-.686l1.194 2.246v1.309h.62v-1.309l1.191-2.246h-.683Zm1.028 3.555.288-.828h1.377l.29.828h.645l-1.345-3.555h-.555l-1.342 3.555h.642Zm.976-2.8.515 1.474h-1.03l.515-1.475Zm3.257 1.389a.807.807 0 0 0-.134.451c0 .3.105.543.315.73.211.186.493.279.844.279.352 0 .655-.096.909-.286l.2.237h.688l-.522-.618c.205-.28.307-.639.307-1.077h-.515c0 .24-.05.457-.149.652l-.686-.81.242-.176a1.34 1.34 0 0 0 .369-.371.785.785 0 0 0 .112-.41.732.732 0 0 0-.249-.564.895.895 0 0 0-.635-.23c-.286 0-.514.082-.683.244-.17.162-.254.381-.254.66 0 .114.027.231.08.354.056.122.153.27.29.444-.263.189-.44.352-.529.49Zm1.604.786a.905.905 0 0 1-.561.2.585.585 0 0 1-.425-.154.533.533 0 0 1-.159-.4c0-.19.098-.36.293-.508l.076-.054.776.916Zm-.637-1.575c-.168-.207-.252-.378-.252-.515 0-.119.035-.217.103-.295a.348.348 0 0 1 .276-.118.37.37 0 0 1 .266.1c.07.066.105.145.105.237a.44.44 0 0 1-.151.345l-.076.06-.271.186Zm5.786 1.931c.244-.213.384-.51.42-.888h-.615c-.033.254-.11.435-.232.544-.122.11-.305.164-.547.164-.265 0-.467-.101-.605-.303-.137-.202-.206-.495-.206-.88v-.314c.004-.38.077-.666.22-.862.145-.197.352-.295.62-.295.231 0 .406.057.525.17.12.113.195.297.225.552h.615c-.04-.389-.178-.69-.417-.903-.24-.213-.555-.32-.948-.32-.291 0-.548.07-.771.208a1.346 1.346 0 0 0-.51.59 2.082 2.082 0 0 0-.179.887v.332c.005.327.066.614.183.862.118.247.284.438.498.573.217.134.467.2.75.2.405 0 .73-.105.974-.317Zm3.63-.498c.12-.264.181-.57.181-.918v-.197a2.149 2.149 0 0 0-.185-.911 1.356 1.356 0 0 0-.52-.6c-.224-.14-.48-.21-.77-.21-.29 0-.546.07-.771.212-.223.14-.396.342-.52.608a2.174 2.174 0 0 0-.183.918v.2c.002.34.063.64.185.9.124.261.298.462.523.604.226.14.483.21.771.21.292 0 .549-.07.772-.21.224-.142.397-.344.517-.606Zm-.661-2.01c.15.21.224.513.224.907v.185c0 .4-.074.705-.222.913-.146.209-.356.313-.63.313a.738.738 0 0 1-.634-.32c-.152-.213-.227-.515-.227-.906v-.205c.003-.382.08-.678.229-.886a.731.731 0 0 1 .627-.315c.274 0 .485.105.633.315Z" clip-rule="evenodd"/>
            </g>
            <defs>
                <clipPath id="a">
                    <path fill="#fff" d="M0 0h106v52.826H0z"/>
                </clipPath>
            </defs>
        </symbol>
        <symbol id="customer_2">
            <g clip-path="url(#a)">
                <path fill-rule="evenodd" d="M50.114 5.935h-.137c-.21-.013-.42-.018-.63-.023h-.455c-.397 0-.802.01-1.204.03a.625.625 0 0 0-.091 0A28.275 28.275 0 0 0 37.08 8.625l-.432.208v22.142l1.012-.344c.888-.305 1.834-.58 2.813-.834a34.329 34.329 0 0 1 8.095-1.075v2.909c-.362.002-.713.012-1.065.03h-.084a32.36 32.36 0 0 0-6.228.956 31.635 31.635 0 0 0-7.42 2.892V7.112a29.727 29.727 0 0 1 7.785-3.166A29.793 29.793 0 0 1 48.892 3h.427c.511.013 1.01.036 1.478.071 1.233.087 2.456.282 3.655.583v2.863a22.623 22.623 0 0 0-3.541-.534l-.073-.006c-.247-.021-.494-.042-.724-.042Zm5.039 2.926c.635.049 1.293.072 1.958.072a31.467 31.467 0 0 0 7.713-.99A31.777 31.777 0 0 0 72.24 5.05v27.89a29.815 29.815 0 0 1-7.786 3.166 29.943 29.943 0 0 1-7.337.944 22.405 22.405 0 0 1-5.565-.656V8.322c.43.1.873.191 1.323.267.739.125 1.518.216 2.277.272Zm14.194.217-1.012.34c-.93.313-1.87.593-2.813.842a34.263 34.263 0 0 1-8.406 1.078c-.66 0-1.267-.018-1.854-.056l-.807-.053V34.006l.693.06c.642.057 1.305.085 1.973.085a26.884 26.884 0 0 0 6.62-.857 27.764 27.764 0 0 0 5.174-1.86l.432-.208V9.078Z" clip-rule="evenodd"/>
                <path d="M35.737 45.212a1.491 1.491 0 0 0-1.126-.455 1.672 1.672 0 0 0-.65.122 1.464 1.464 0 0 0-.832.842c-.08.2-.119.413-.116.628v3.794c-.01.267.042.533.149.778.09.195.219.368.38.509.151.127.329.22.52.27.185.051.376.078.567.078.211.002.42-.043.612-.132a1.6 1.6 0 0 0 .96-1.465v-.424h-.993v.338a.88.88 0 0 1-.058.338.608.608 0 0 1-.144.214.697.697 0 0 1-.415.145.503.503 0 0 1-.465-.204.898.898 0 0 1-.132-.508v-3.538c-.006-.196.036-.39.122-.567a.507.507 0 0 1 .485-.229.527.527 0 0 1 .443.214.806.806 0 0 1 .164.509v.328h.982v-.387a1.79 1.79 0 0 0-.121-.664 1.56 1.56 0 0 0-.332-.534ZM41.629 45.17a1.765 1.765 0 0 0-1.128-.418c-.202 0-.403.037-.592.107A1.56 1.56 0 0 0 39 45.7c-.1.231-.15.482-.145.735v3.638c-.007.256.043.51.145.745.09.196.22.37.384.509.152.14.33.25.524.32.19.07.39.106.592.107a1.714 1.714 0 0 0 1.128-.427c.158-.142.285-.315.374-.509.102-.234.151-.489.145-.745v-3.639a1.77 1.77 0 0 0-.145-.734 1.641 1.641 0 0 0-.374-.532Zm-.463 4.904a.656.656 0 0 1-.197.527.727.727 0 0 1-.934 0 .65.65 0 0 1-.197-.527v-3.639a.653.653 0 0 1 .197-.526.726.726 0 0 1 .934 0 .652.652 0 0 1 .197.526v3.64ZM49.367 51.7v-6.89h-.953l-1.253 3.647h-.017l-1.263-3.646h-.943v6.888h.984v-4.19h.018l.963 2.962h.491l.971-2.962h.018v4.19h.984ZM54.958 45.294c-.151-.17-.343-.3-.556-.377a2.184 2.184 0 0 0-.714-.107h-1.462v6.89h.982v-2.691h.505c.307.014.611-.051.886-.188a1.43 1.43 0 0 0 .539-.527c.113-.183.19-.387.225-.6a4.9 4.9 0 0 0 .053-.783c.01-.33-.023-.662-.096-.984a1.466 1.466 0 0 0-.362-.633Zm-.506 2.1a.867.867 0 0 1-.091.359.552.552 0 0 1-.253.241 1.006 1.006 0 0 1-.463.087h-.448v-2.342h.506a.942.942 0 0 1 .443.086.556.556 0 0 1 .23.254c.054.121.083.252.086.384v.458c0 .16.01.326 0 .473h-.01ZM59.608 44.81h-.805l-1.518 6.89h.982l.288-1.48h1.339l.288 1.48h.981l-1.555-6.89Zm-.906 4.471.483-2.497h.018l.48 2.497h-.981ZM65.95 48.96h-.018l-1.482-4.15h-.944v6.89h.981v-4.143h.02l1.5 4.142h.924v-6.888h-.981v4.15ZM71.948 44.81l-.79 2.74h-.02l-.79-2.74H69.31l1.348 3.978v2.911h.982v-2.911l1.348-3.977h-1.04Z"/>
            </g>
            <defs>
                <clipPath id="a">
                    <path fill="#fff" d="M0 0h106v52.826H0z"/>
                </clipPath>
            </defs>
        </symbol>
        <symbol id="customer_3">
            <path d="M36.406 49.188c.016 0 .032.004.046.01a.122.122 0 0 1 .039.023l.218.209c-.17.169-.379.304-.614.396-.275.1-.571.148-.87.142-.28.005-.558-.04-.817-.133a1.792 1.792 0 0 1-.616-.374 1.674 1.674 0 0 1-.398-.578 1.926 1.926 0 0 1-.14-.742 1.725 1.725 0 0 1 .572-1.322c.187-.163.41-.291.655-.377.269-.09.555-.135.843-.132a2.27 2.27 0 0 1 .782.12c.216.082.415.195.587.335l-.183.222a.177.177 0 0 1-.046.04.125.125 0 0 1-.074.017.177.177 0 0 1-.08-.023l-.097-.06-.137-.076a1.572 1.572 0 0 0-.43-.132 1.892 1.892 0 0 0-.325-.024 1.759 1.759 0 0 0-.605.1c-.18.063-.341.158-.474.28-.136.128-.241.28-.309.445a1.497 1.497 0 0 0-.111.587c-.004.203.034.405.111.597a1.3 1.3 0 0 0 .303.443c.125.12.28.215.453.275.178.064.369.096.561.095.111.001.223-.005.333-.02a1.316 1.316 0 0 0 .72-.305.17.17 0 0 1 .103-.038ZM42.704 48.14a1.81 1.81 0 0 1-.147.737 1.594 1.594 0 0 1-.41.573 1.89 1.89 0 0 1-.645.375 2.655 2.655 0 0 1-1.658 0 1.91 1.91 0 0 1-.64-.377 1.676 1.676 0 0 1-.415-.578 1.922 1.922 0 0 1 0-1.475c.093-.216.234-.413.415-.58.182-.159.4-.282.64-.363a2.61 2.61 0 0 1 1.658 0c.242.085.461.213.643.376.18.165.32.359.412.571.101.237.151.489.147.742Zm-.572 0a1.565 1.565 0 0 0-.104-.592 1.22 1.22 0 0 0-.752-.722 1.918 1.918 0 0 0-1.205 0 1.297 1.297 0 0 0-.461.28 1.19 1.19 0 0 0-.294.442 1.738 1.738 0 0 0 0 1.185 1.209 1.209 0 0 0 .755.72c.388.126.816.126 1.205 0 .175-.061.333-.156.46-.277.131-.129.23-.28.292-.443.074-.19.108-.391.104-.592ZM47.001 48.762l.058.132c.021-.047.04-.09.062-.132.021-.045.045-.088.071-.13l1.393-2.201c.028-.038.052-.062.08-.069a.373.373 0 0 1 .114-.012h.412v3.58h-.488v-2.744a.974.974 0 0 1 0-.123L47.3 49.295a.203.203 0 0 1-.082.081.246.246 0 0 1-.12.03h-.079a.243.243 0 0 1-.12-.03.201.201 0 0 1-.081-.081l-1.443-2.246V49.922h-.471V46.35h.411a.374.374 0 0 1 .115.012c.034.015.06.039.076.069l1.423 2.203c.028.04.052.083.071.128ZM52.244 48.584v1.34H51.7V46.35h1.216a2.6 2.6 0 0 1 .679.078c.176.044.34.12.48.223a.923.923 0 0 1 .273.35c.064.146.095.302.092.458a.992.992 0 0 1-.395.815c-.14.107-.304.188-.483.236a2.307 2.307 0 0 1-.657.083l-.66-.01Zm0-.384h.66c.143.002.286-.017.423-.054a.923.923 0 0 0 .305-.154.687.687 0 0 0 .25-.538.605.605 0 0 0-.054-.291.69.69 0 0 0-.19-.244 1.172 1.172 0 0 0-.734-.192h-.66V48.2ZM59.573 49.93h-.43a.205.205 0 0 1-.12-.034.224.224 0 0 1-.072-.083l-.37-.864h-1.863l-.384.864a.196.196 0 0 1-.068.08.205.205 0 0 1-.123.036h-.43l1.635-3.58h.567l1.658 3.58Zm-2.7-1.33h1.539l-.65-1.457c-.049-.11-.09-.222-.122-.336l-.063.187c-.019.057-.04.11-.06.152l-.643 1.454ZM61.929 46.366c.032.016.06.038.082.064l2.385 2.699V46.35h.488v3.58h-.272a.264.264 0 0 1-.112-.022.298.298 0 0 1-.087-.066l-2.383-2.696a.974.974 0 0 1 0 .123v2.66h-.488v-3.58h.289c.033 0 .067.006.098.017ZM68.903 48.506v1.421h-.545v-1.421L66.85 46.35h.488a.196.196 0 0 1 .117.03.31.31 0 0 1 .074.081l.943 1.39c.038.06.071.115.099.167.027.052.049.102.068.151l.07-.154c.027-.056.058-.11.093-.163l.93-1.4a.379.379 0 0 1 .07-.076.182.182 0 0 1 .118-.035h.494l-1.51 2.165ZM46.731 40.343c.238.026.478.047.72.066 3.68-1.43 6.791-3.77 8.948-6.728 2.156-2.958 3.261-6.403 3.177-9.904l-4.054-3.522c.824 3.727.438 7.58-1.114 11.128-1.553 3.548-4.21 6.65-7.677 8.96Z"/>
            <path d="m45.284 40.18.109.018c3.704-2.302 6.527-5.516 8.106-9.227 1.579-3.711 1.84-7.749.75-11.59l-5.775-5.017c2.335 4.124 3.276 8.74 2.71 13.31-.564 4.57-2.61 8.906-5.9 12.505ZM64.868 27.913c-.981 3.847-3.364 7.316-6.794 9.893a21.633 21.633 0 0 1-3.228 2.013c2.793-.713 5.36-1.974 7.504-3.686 2.144-1.712 3.807-3.829 4.86-6.187l-2.342-2.033Z"/>
            <path d="m63.949 27.347-3.334-2.897c-.064 3.303-1.145 6.53-3.13 9.348-1.986 2.818-4.804 5.122-8.16 6.673h.016c.748 0 1.495-.04 2.238-.116 3.137-1.113 5.909-2.883 8.067-5.153 2.159-2.27 3.637-4.968 4.303-7.855ZM45.766 12.248l-3.978-3.461c-3.556 1.194-6.614 3.293-8.775 6.022-2.16 2.73-3.322 5.961-3.333 9.274.013 3.66 1.431 7.212 4.03 10.093 2.597 2.88 6.227 4.927 10.314 5.814 3.648-3.862 5.785-8.634 6.098-13.623.313-4.99-1.213-9.935-4.356-14.12ZM73.14 26.814c-.014-4.342-2.006-8.503-5.54-11.574-3.534-3.07-8.324-4.801-13.322-4.814a21.18 21.18 0 0 0-6.753 1.092L71.88 32.68a14.352 14.352 0 0 0 1.26-5.865Z"/>        
        </symbol>
        <symbol id="customer_4">
            <path d="M13.146 12.403h-.003c-2.398 0-4.342 1.727-4.342 3.859v.002c0 2.131 1.944 3.859 4.342 3.859h.003c2.398 0 4.342-1.728 4.342-3.859v-.002c0-2.132-1.944-3.86-4.342-3.86ZM45.195 11.17c-.007-2.96-1.333-5.798-3.688-7.891C39.153 1.186 35.96.007 32.63 0c-3.332.005-6.526 1.184-8.882 3.277-2.356 2.094-3.683 4.931-3.69 7.892v16.323s25.134-2.488 25.137-16.32v-.003ZM0 32.85c.006 2.06.93 4.033 2.568 5.49 1.638 1.456 3.859 2.277 6.176 2.283 2.317-.006 4.537-.827 6.176-2.283 1.638-1.456 2.562-3.429 2.568-5.488V21.494S0 23.227 0 32.85Zm8.744 2.035c-.453 0-.895-.12-1.272-.343a2.108 2.108 0 0 1-.843-.914 1.826 1.826 0 0 1-.13-1.175c.088-.395.306-.758.626-1.042.32-.285.728-.479 1.172-.557a2.557 2.557 0 0 1 1.323.116c.419.154.777.414 1.028.749.252.335.386.728.386 1.13a1.84 1.84 0 0 1-.172.782 2.037 2.037 0 0 1-.496.662c-.212.19-.465.34-.744.444a2.542 2.542 0 0 1-.878.155v-.008ZM24.73 31.241v4.266h-.879v-4.266h.88Zm1.7 1.823v.685h-1.94v-.685h1.94Zm.204-1.823v.689H24.49v-.689h2.145Zm4.014 2.034v.202a2.7 2.7 0 0 1-.132.873 1.92 1.92 0 0 1-.372.659c-.16.18-.351.317-.574.413a1.83 1.83 0 0 1-.735.144c-.268 0-.513-.048-.736-.144a1.65 1.65 0 0 1-.574-.413 1.931 1.931 0 0 1-.378-.66 2.696 2.696 0 0 1-.132-.872v-.202c0-.327.044-.618.132-.873a1.92 1.92 0 0 1 .372-.66c.162-.181.354-.32.575-.416.222-.095.467-.143.735-.143.27 0 .514.048.735.143.223.096.414.235.574.416.162.182.287.402.375.66.09.255.135.546.135.873Zm-.887.202v-.208c0-.227-.021-.426-.062-.598a1.295 1.295 0 0 0-.182-.434.783.783 0 0 0-.293-.263.837.837 0 0 0-.395-.091c-.149 0-.28.03-.396.09a.79.79 0 0 0-.29.264 1.335 1.335 0 0 0-.178.434 2.593 2.593 0 0 0-.062.598v.208c0 .224.02.424.062.597.04.172.101.318.181.437a.81.81 0 0 0 .293.267c.115.06.247.09.396.09.148 0 .28-.03.395-.09a.787.787 0 0 0 .29-.267c.078-.12.138-.265.179-.437.041-.173.061-.373.061-.597Zm3.74.914a.565.565 0 0 0-.034-.205.387.387 0 0 0-.123-.17 1.091 1.091 0 0 0-.255-.155 3.605 3.605 0 0 0-.425-.159 5.371 5.371 0 0 1-.551-.21 2.264 2.264 0 0 1-.457-.273 1.227 1.227 0 0 1-.31-.366 1.008 1.008 0 0 1-.112-.484 1 1 0 0 1 .117-.483c.078-.147.188-.272.328-.375.141-.106.307-.187.499-.243.193-.057.405-.085.635-.085.315 0 .59.056.823.17.235.113.416.268.545.465.131.198.197.423.197.677h-.873a.657.657 0 0 0-.08-.328.535.535 0 0 0-.234-.226.836.836 0 0 0-.392-.081.908.908 0 0 0-.381.07.508.508 0 0 0-.229.184.454.454 0 0 0-.076.258c0 .072.018.138.053.197a.593.593 0 0 0 .164.163c.072.051.161.1.266.144.106.045.228.089.367.132.232.07.436.15.612.237.178.088.326.187.445.296.12.11.21.234.27.372.06.139.09.296.09.472 0 .185-.036.352-.108.498-.072.146-.176.27-.313.372-.137.102-.3.179-.49.231-.189.053-.4.08-.635.08-.211 0-.42-.028-.624-.083a1.894 1.894 0 0 1-.56-.254 1.284 1.284 0 0 1-.398-.434c-.1-.176-.15-.384-.15-.624h.882c0 .133.02.245.062.337a.563.563 0 0 0 .172.223.743.743 0 0 0 .27.123c.105.025.22.038.346.038a.938.938 0 0 0 .375-.065.464.464 0 0 0 .293-.436Zm3.385-3.15v4.266h-.877v-4.266h.877Zm1.312 0v.689h-3.48v-.689h3.48Zm3.363 3.58v.686h-2.27v-.686h2.27Zm-1.983-3.58v4.266h-.879v-4.266h.879Zm1.687 1.738v.668h-1.974v-.668h1.974Zm.293-1.738v.689h-2.267v-.689h2.267Zm.516 0h1.59c.327 0 .607.05.842.147.236.097.418.242.544.433.128.192.191.427.191.707 0 .228-.04.424-.117.588a1.104 1.104 0 0 1-.325.408 1.69 1.69 0 0 1-.49.257l-.278.147h-1.383l-.006-.686h1.029a.803.803 0 0 0 .383-.082.538.538 0 0 0 .229-.228.705.705 0 0 0 .08-.34.771.771 0 0 0-.077-.355.514.514 0 0 0-.232-.228.855.855 0 0 0-.39-.08h-.711v3.578h-.879v-4.266Zm2.385 4.266-.973-1.901.929-.006.984 1.866v.041h-.94Zm4.614-1.52h-1.087V33.3h1.087a.89.89 0 0 0 .41-.082.527.527 0 0 0 .232-.235.86.86 0 0 0 0-.691.592.592 0 0 0-.232-.264.76.76 0 0 0-.41-.1h-.782v3.578h-.88v-4.266h1.662c.334 0 .62.06.858.182.24.12.424.284.551.495.127.211.19.452.19.724 0 .275-.063.513-.19.715-.127.2-.31.356-.55.465-.239.11-.525.164-.859.164Zm5.068.834v.686h-2.27v-.686h2.27Zm-1.983-3.58v4.266h-.879v-4.266h.879Zm1.688 1.738v.668H51.87v-.668h1.974Zm.292-1.738v.689h-2.267v-.689h2.267Zm2.482 0v4.266h-.876v-4.266h.876Zm1.312 0v.689h-3.48v-.689h3.48Zm3.364 3.58v.686h-2.27v-.686h2.27Zm-1.984-3.58v4.266h-.879v-4.266h.88ZM61 32.98v.668h-1.975v-.668H61Zm.293-1.738v.689h-2.268v-.689h2.268Zm.515 0H63.4c.326 0 .607.05.841.147.236.097.418.242.545.433.127.192.19.427.19.707 0 .228-.039.424-.117.588a1.104 1.104 0 0 1-.325.408 1.69 1.69 0 0 1-.49.257l-.278.147h-1.382l-.006-.686h1.028a.803.803 0 0 0 .384-.082.537.537 0 0 0 .228-.228.704.704 0 0 0 .08-.34.773.773 0 0 0-.077-.355.514.514 0 0 0-.231-.228.855.855 0 0 0-.39-.08h-.712v3.578h-.879v-4.266Zm2.385 4.266-.972-1.901.928-.006.984 1.866v.041h-.94Zm3.68-1.116a.563.563 0 0 0-.035-.205.387.387 0 0 0-.123-.17 1.091 1.091 0 0 0-.255-.155 3.605 3.605 0 0 0-.425-.159 5.371 5.371 0 0 1-.55-.21 2.264 2.264 0 0 1-.458-.273 1.227 1.227 0 0 1-.31-.366 1.008 1.008 0 0 1-.112-.484 1 1 0 0 1 .117-.483c.079-.147.188-.272.329-.375.14-.106.306-.187.498-.243.193-.057.405-.085.635-.085.315 0 .59.056.824.17.234.113.416.268.544.465.131.198.197.423.197.677h-.873a.657.657 0 0 0-.08-.328.535.535 0 0 0-.234-.226.836.836 0 0 0-.392-.081.908.908 0 0 0-.381.07.508.508 0 0 0-.229.184.454.454 0 0 0-.076.258c0 .072.018.138.053.197a.593.593 0 0 0 .164.163c.072.051.161.1.267.144.105.045.227.089.366.132.232.07.436.15.612.237.178.088.326.187.445.296.12.11.21.234.27.372.06.139.09.296.09.472 0 .185-.035.352-.108.498-.072.146-.176.27-.313.372-.137.102-.3.179-.49.231-.189.053-.4.08-.635.08-.211 0-.42-.028-.624-.083a1.894 1.894 0 0 1-.56-.254 1.284 1.284 0 0 1-.398-.434c-.1-.176-.15-.384-.15-.624h.882c0 .133.02.245.062.337a.564.564 0 0 0 .173.223.743.743 0 0 0 .27.123c.105.025.22.038.345.038a.938.938 0 0 0 .375-.065.464.464 0 0 0 .293-.436Z"/>        
        </symbol>
        <symbol id="customer_5">
            <path d="M4.757 37.968c.244.277.373.622.367.977a1.43 1.43 0 0 1-.131.677 1.557 1.557 0 0 1-.438.557 2.626 2.626 0 0 1-1.651.451H0V34.44h2.844a2.592 2.592 0 0 1 1.576.411c.184.14.33.319.425.52.096.2.139.42.127.639.016.341-.1.677-.33.946-.221.246-.526.417-.866.484.385.065.733.252.98.53Zm-3.406-.934h1.216c.276.019.55-.054.773-.206a.737.737 0 0 0 .207-.274.679.679 0 0 0 .054-.33.701.701 0 0 0-.055-.33.76.76 0 0 0-.203-.276 1.254 1.254 0 0 0-.796-.208H1.35v1.624Zm2.108 2.374a.775.775 0 0 0 .224-.284.71.71 0 0 0 .063-.345.722.722 0 0 0-.066-.349.788.788 0 0 0-.228-.286 1.339 1.339 0 0 0-.826-.224H1.351v1.703h1.292c.29.015.578-.06.816-.215ZM10.57 40.63 8.99 38.21h-.595v2.42H7.033V34.44H9.61a2.698 2.698 0 0 1 1.793.526c.36.336.578.779.613 1.249.035.47-.114.935-.421 1.313a2.147 2.147 0 0 1-1.229.63l1.685 2.473h-1.48Zm-2.176-3.263h1.113c.773 0 1.16-.313 1.16-.938a.852.852 0 0 0-.063-.375.917.917 0 0 0-.221-.32 1.282 1.282 0 0 0-.876-.252H8.381l.013 1.885ZM18.01 39.384h-2.712l-.479 1.246h-1.427l2.49-6.122h1.543l2.481 6.122H18.48l-.469-1.246Zm-.363-.938-.991-2.613-.991 2.613h1.982ZM27.322 40.63h-1.35l-3.03-4.21v4.21h-1.348V34.44h1.348l3.03 4.234V34.44h1.35v6.191ZM35.033 39.148c-.28.468-.705.848-1.223 1.092a4.288 4.288 0 0 1-1.9.39h-2.404V34.44h2.405a4.373 4.373 0 0 1 1.9.38c.517.24.943.616 1.222 1.08.278.504.423 1.06.423 1.625 0 .564-.145 1.12-.423 1.624ZM33.487 39c.385-.411.597-.935.597-1.478 0-.542-.212-1.066-.597-1.477a2.488 2.488 0 0 0-1.692-.526h-.938v4.007h.938A2.488 2.488 0 0 0 33.487 39ZM18.856 0s17.438 6.028 17.069 14.751v14.755S18.499 23.474 18.862 14.75L18.856 0ZM51.46 26.051c3.294-2.075 7.103-3.36 11.08-3.738v-4.619c-4.582 1.617-8.47 4.55-11.08 8.357Z"/>
            <path d="M49.482 27.443c2.695-4.97 7.368-8.805 13.058-10.717V3.418s-24.835 8.587-24.31 21.01v21.005s1.107-.384 2.848-1.104c0-.671 0-1.349.08-2.03.513-5.766 3.507-11.11 8.324-14.856Z"/>
            <path d="M47.12 35.246a20.05 20.05 0 0 1 .869-4.3c-3 3.234-4.816 7.249-5.193 11.478-.037.4-.057.798-.066 1.21a74.697 74.697 0 0 0 4.776-2.305c-.44-2-.57-4.048-.386-6.083ZM48.108 35.322a19.051 19.051 0 0 0 .307 5.508c6.785-3.717 14.41-9.461 14.115-16.403v-.605c-4.848.497-9.383 2.437-12.91 5.523a19.259 19.259 0 0 0-1.512 5.977Z"/>        
        </symbol>
        <symbol id="customer_6">
            <path d="M47.425 20.642a2.947 2.947 0 0 1-.605-1.99V15.77c0-.884.2-1.556.602-2.015.4-.46 1.089-.689 2.065-.687.917 0 1.569.196 1.953.587.42.499.625 1.11.578 1.725v.677h-1.64v-.686c.005-.225-.01-.45-.048-.672a.65.65 0 0 0-.235-.399.948.948 0 0 0-.594-.155 1.005 1.005 0 0 0-.625.164.768.768 0 0 0-.272.44 3.33 3.33 0 0 0-.065.713v3.499c-.026.337.047.675.21.982a.77.77 0 0 0 .328.239c.133.051.28.07.424.055a.893.893 0 0 0 .58-.159.704.704 0 0 0 .245-.425 3.86 3.86 0 0 0 .051-.7v-.71h1.641v.648a2.64 2.64 0 0 1-.567 1.812c-.377.428-1.02.642-1.964.642s-1.658-.228-2.062-.703ZM54.257 20.67c-.415-.448-.622-1.102-.622-1.967V15.67c0-.857.207-1.505.622-1.945.414-.44 1.107-.659 2.079-.657.965 0 1.654.22 2.069.657.414.44.625 1.088.625 1.945v3.033c0 .856-.21 1.513-.632 1.965-.421.452-1.107.677-2.062.677-.955 0-1.661-.228-2.08-.674Zm2.843-.727c.149-.28.216-.589.197-.897v-3.713a1.65 1.65 0 0 0-.193-.88.775.775 0 0 0-.335-.242.906.906 0 0 0-.433-.052.917.917 0 0 0-.434.053.786.786 0 0 0-.337.24c-.15.275-.217.578-.197.88v3.732c-.02.308.047.616.197.897.095.095.214.17.346.222a1.156 1.156 0 0 0 .843 0 1.02 1.02 0 0 0 .346-.222v-.018ZM61.004 13.157h1.766l1.328 5.596 1.36-5.596h1.718l.174 8.077h-1.271l-.136-5.614-1.311 5.614h-1.02L62.255 15.6l-.126 5.634h-1.284l.16-8.077ZM69.33 13.157h2.752c1.585 0 2.378.764 2.378 2.293 0 1.465-.835 2.196-2.504 2.194h-.937v3.59H69.32l.01-8.077Zm2.351 3.452c.168.018.338.005.5-.04.16-.043.31-.117.434-.215.195-.273.281-.594.245-.912a2.525 2.525 0 0 0-.082-.734.594.594 0 0 0-.125-.221.701.701 0 0 0-.214-.163 1.757 1.757 0 0 0-.758-.129h-.659v2.414h.66ZM76.91 13.157h1.824l1.872 8.077h-1.584l-.37-1.863h-1.627l-.38 1.863h-1.607l1.871-8.077Zm1.559 5.279-.635-3.39-.636 3.39h1.27ZM82.117 13.157h1.19l2.275 4.607v-4.607h1.41v8.077h-1.131l-2.29-4.81v4.81h-1.457l.003-8.077ZM90.294 18.154l-1.892-4.986h1.594l1.155 3.203 1.083-3.203h1.56l-1.869 4.986v3.08h-1.63v-3.08ZM50.048 24.765v.422h-1.386v3.282h-.581v-3.282h-1.393v-.422h3.36ZM54.393 28.47h-.449a.2.2 0 0 1-.126-.036.194.194 0 0 1-.074-.085l-.401-.88H51.42l-.4.88a.242.242 0 0 1-.062.1.206.206 0 0 1-.126.035h-.448l1.699-3.704h.59l1.72 3.69Zm-2.813-1.376h1.603l-.68-1.508a2.694 2.694 0 0 1-.125-.348c-.024.07-.044.137-.064.196l-.062.155-.672 1.505ZM57.321 28.106c.107.004.213.004.32 0 .091-.009.182-.023.271-.044.083-.018.165-.04.245-.068.075-.026.15-.058.227-.09v-.834h-.679a.14.14 0 0 1-.092-.03.087.087 0 0 1-.026-.03.074.074 0 0 1-.008-.037v-.284h1.318v1.42a2.578 2.578 0 0 1-.716.302c-.14.035-.281.06-.425.076a5.16 5.16 0 0 1-.496.023 2.596 2.596 0 0 1-.856-.137 2.09 2.09 0 0 1-.68-.388 1.79 1.79 0 0 1-.438-.586 1.85 1.85 0 0 1-.156-.769 1.92 1.92 0 0 1 .153-.774c.097-.22.247-.42.438-.587.194-.166.425-.297.68-.384.29-.095.6-.141.91-.138.158 0 .316.01.472.032.138.02.274.051.404.094.12.039.233.088.34.147.104.058.203.122.296.194l-.163.228a.143.143 0 0 1-.055.051.17.17 0 0 1-.078.02.223.223 0 0 1-.105-.03 2.113 2.113 0 0 1-.167-.088 1.514 1.514 0 0 0-.227-.1 2.139 2.139 0 0 0-.313-.082 2.625 2.625 0 0 0-.431-.032 2.009 2.009 0 0 0-.656.103c-.189.065-.36.165-.5.293a1.29 1.29 0 0 0-.315.46 1.732 1.732 0 0 0 0 1.236c.074.174.19.333.34.466.139.127.308.227.495.293.216.064.445.09.673.074ZM62.736 28.047h1.855v.422H62.17v-3.704h.58l-.013 3.282ZM66.52 28.47h-.58v-3.705h.58v3.704ZM68.681 24.782a.28.28 0 0 1 .089.068l2.483 2.792a.881.881 0 0 1 0-.132V24.75h.506v3.72h-.292a.274.274 0 0 1-.126-.021.33.33 0 0 1-.091-.07l-2.48-2.79V28.47h-.486v-3.705h.302c.033 0 .066.006.095.017ZM76.036 24.765v.408h-2.058v1.223h1.668v.393h-1.668v1.264h2.058v.407H73.38v-3.695h2.656ZM15.162 1.889l25.795 6.323V30.37l-25.795-6.32V1.889ZM13.507 0v25.126l29.1 7.136V7.139L13.508 0Z"/>
            <path d="M29.104 43.925 0 36.785V11.66l29.104 7.14v25.125Z"/>
            <path d="m13.99 1.604 25.458 6.244-10.826 9.35-25.463-6.247 10.83-9.347ZM13.507 0 0 11.661l29.104 7.138L42.608 7.14 13.508 0ZM30.741 42.512l11.867-10.247-11.866-2.913v13.16Z"/>        
        </symbol>
        <symbol id="close_icon">
            <circle cx="15" cy="15" r="15" fill="#fff"/>
            <circle cx="15" cy="15" r="14.5" stroke="#000" stroke-opacity=".1"/>
            <path fill="#000" d="M21 10.108 19.892 9 15.5 13.392 11.108 9 10 10.108l4.392 4.392L10 18.892 11.108 20l4.392-4.392L19.892 20 21 18.892 16.608 14.5 21 10.108Z"/>
        </symbol>
        <symbol id="form_userIcon">
            <path d="M6 6a3 3 0 1 0 0-6 3 3 0 1 0 0 6Zm0 1.5c-2.002 0-6 1.005-6 3v.75c0 .412.338.75.75.75h10.5c.412 0 .75-.338.75-.75v-.75c0-1.995-3.998-3-6-3Z"/>
        </symbol>
        <symbol id="form_phoneIcon">
            <path d="m11.996 9.123-1.838-.21a1.44 1.44 0 0 0-1.187.412l-1.332 1.332a10.888 10.888 0 0 1-4.769-4.77L4.21 4.55a1.44 1.44 0 0 0 .412-1.187l-.21-1.824a1.448 1.448 0 0 0-1.44-1.28H1.72C.902.257.222.937.272 1.754c.384 6.18 5.327 11.116 11.5 11.5.817.05 1.498-.63 1.498-1.448v-1.252a1.434 1.434 0 0 0-1.274-1.432Z"/>
        </symbol>
        <symbol id="form_mailIcon">
            <path d="M14 0H2C1.175 0 .507.675.507 1.5l-.007 9c0 .825.675 1.5 1.5 1.5h12c.825 0 1.5-.675 1.5-1.5v-9C15.5.675 14.825 0 14 0Zm-.3 3.188L8.398 6.502a.759.759 0 0 1-.795 0L2.3 3.187a.637.637 0 1 1 .675-1.08L8 5.25l5.025-3.143a.637.637 0 1 1 .675 1.08Z"/>
        </symbol>
        <symbol id="subs_sendIcon">
            <path fill="#fff" d="M24 0 0 13.5l7.67 2.84L19.5 5.25l-8.998 12.14.007.002-.009-.002V24l4.301-5.018L20.251 21 24 0Z"/>
        </symbol>
    </defs>
</svg>